<svg id="Layer_1" data-name="Layer 1" xmlns="http://www.w3.org/2000/svg" viewBox="0 0 272.44 72.35"><defs><style>.cls-1{fill:#fff;}.cls-2{fill:none;}.cls-3{fill:#d1d3d4;}.cls-4{fill:#0093d1;}.cls-5{fill:#231f20;}.cls-6{fill:#939598;}</style></defs><title>DTCFALL18_hdr_DTC_outl</title><rect class="cls-1" width="272.44" height="72.35"/><circle class="cls-2" cx="220.17" cy="37.2" r="30.01" transform="translate(130.34 241.62) rotate(-75.87)"/><path class="cls-3" d="M230.37,12"/><path class="cls-3" d="M243,50.39l-.3.52.58.35Z"/><path class="cls-3" d="M210.2,58.91l-.67-.3a.52.52,0,0,1,.43-.94h0a22.5,22.5,0,0,0,10.71,2.11.51.51,0,1,1,.05,1,23.57,23.57,0,0,1-10.53-1.91Zm15.84.9a.51.51,0,0,1,.06-1,22.53,22.53,0,0,0,15.77-18.5.52.52,0,1,1,1,.14,23.45,23.45,0,0,1-1.72,6.16A23.61,23.61,0,0,1,226.4,59.82a.5.5,0,0,1-.36,0Zm14.91-30a.52.52,0,0,1-.28-.29,22.57,22.57,0,0,0-2.52-4.89A.51.51,0,1,1,239,24a23.59,23.59,0,0,1,2.64,5.11.51.51,0,0,1-.69.65ZM213.59,15.46a.51.51,0,0,1,.08-1,23.63,23.63,0,0,1,11.42-.1.52.52,0,0,1-.24,1,22.59,22.59,0,0,0-10.92.09.51.51,0,0,1-.33,0Z"/><path class="cls-3" d="M213.38,5.95a.92.92,0,0,1,.72-1.13.9.9,0,0,1,1.08.78.91.91,0,0,1-.74,1.13A.9.9,0,0,1,213.38,5.95Z"/><path class="cls-3" d="M216.35,5.44a.92.92,0,0,1,.83-1.05.9.9,0,0,1,1,.88.91.91,0,0,1-.84,1.05A.9.9,0,0,1,216.35,5.44Z"/><path class="cls-3" d="M240.47,12.5a.92.92,0,0,1,1.33-.13.9.9,0,0,1,.05,1.33.91.91,0,0,1-1.35.12A.9.9,0,0,1,240.47,12.5Z"/><path class="cls-3" d="M242.71,14.53a.92.92,0,0,1,1.34,0,.9.9,0,0,1-.07,1.33.91.91,0,0,1-1.35,0A.9.9,0,0,1,242.71,14.53Z"/><path class="cls-3" d="M248.52,52a.92.92,0,0,1,.4,1.28.9.9,0,0,1-1.29.33.91.91,0,0,1-.4-1.29A.9.9,0,0,1,248.52,52Z"/><path class="cls-3" d="M247,54.59a.92.92,0,0,1,.28,1.31.9.9,0,0,1-1.31.2.92.92,0,1,1,1-1.51Z"/><path class="cls-3" d="M245.24,57a.92.92,0,0,1,.15,1.33.9.9,0,0,1-1.33.08.91.91,0,0,1-.14-1.34A.9.9,0,0,1,245.24,57Z"/><path class="cls-3" d="M238.55,63.35a.92.92,0,0,1-.23,1.32.9.9,0,0,1-1.29-.3.92.92,0,1,1,1.52-1Z"/><path class="cls-3" d="M236,65a.92.92,0,0,1-.35,1.29.9.9,0,0,1-1.26-.42.92.92,0,0,1,.37-1.3A.9.9,0,0,1,236,65Z"/><line class="cls-3" x1="250.42" y1="46.42" x2="250.46" y2="46.4"/><path class="cls-3" d="M248.58,48.74l2.54,1.1a34.23,34.23,0,0,0,1.69-22l-3.15.81a30.48,30.48,0,0,0-11.26-16.15l1.94-2.66a33.74,33.74,0,0,0-12.64-5.7,34.1,34.1,0,0,0-8.44-.8l.1,3.19a30.49,30.49,0,0,0-14.94,4.34,30.94,30.94,0,0,0-3.77,2.65l7.32.73.48-.26a26.13,26.13,0,0,1,13.81-2.75L222.51,8A29.35,29.35,0,0,1,230.9,9.9l-.82,3.24a26.26,26.26,0,0,1,3.08,1.49l2.14-2.57A29.15,29.15,0,0,1,249,31.83l-3.45-.06A26.15,26.15,0,0,1,246,42.19l3,.74c-.1.48-.2,1-.32,1.43A29.31,29.31,0,0,1,247.42,48l-2.87-1.27a30.21,30.21,0,0,1-3.86,6.42,29.86,29.86,0,0,1-9.36,7.91l1.4,2.6a29.24,29.24,0,0,1-14.89,2.74l.25-3a25.91,25.91,0,0,1-8.89-2.38L202,62a30.95,30.95,0,0,0,10.67,5l.72.16L212.76,70a34.17,34.17,0,0,0,21.92-2.5l-1.25-2.64A30.67,30.67,0,0,0,248.58,48.74ZM223.23,6.34a.9.9,0,0,1-.79-1.05.92.92,0,0,1,1-.88.9.9,0,0,1,.81,1.05A.91.91,0,0,1,223.23,6.34Zm2.89.42a.9.9,0,0,1-.69-1.12.92.92,0,0,1,1.09-.78A.9.9,0,0,1,227.22,6,.91.91,0,0,1,226.12,6.77Zm3.71,61.94a.9.9,0,0,1-1.16-.65.91.91,0,0,1,.61-1.21.9.9,0,0,1,1.14.66A.92.92,0,0,1,229.83,68.7ZM251.68,47a.9.9,0,0,1-1.19.59.91.91,0,0,1-.65-1.18.9.9,0,0,1,1.19-.57A.92.92,0,0,1,251.68,47Zm-1.11-3.45a.9.9,0,0,1,1.13-.68.92.92,0,0,1,.76,1.1.9.9,0,0,1-1.13.69A.91.91,0,0,1,250.57,43.54Z"/><path class="cls-3" d="M239,42a20.08,20.08,0,0,0-11.5-23.41,20.35,20.35,0,0,0-3.13-1.06,20,20,0,0,0-10.26.12l.33.82a19.14,19.14,0,0,1,9.71-.09,19.42,19.42,0,0,1,3,1,19.28,19.28,0,0,1-12.4,36.37,19.52,19.52,0,0,1-3-1l0,0-1,.5.73.34a20.51,20.51,0,0,0,3.13,1.06A20.18,20.18,0,0,0,239,42Z"/><path class="cls-3" d="M228,39.18a8.23,8.23,0,0,0-13.72-7.91l2.89.65a6,6,0,0,1,4.3-.55,6,6,0,0,1,.93.32,6,6,0,1,1-7,9.25l-2.94-.56a8.19,8.19,0,0,0,4.3,4.35,8.59,8.59,0,0,0,1.28.43,8.24,8.24,0,0,0,10-6Z"/><path class="cls-3" d="M225.59,23.58a14.8,14.8,0,0,0-2.29-.78,14.61,14.61,0,0,0-8.11.28L217.77,25h0a11.7,11.7,0,0,1,1.54-.16l0-1a13.32,13.32,0,0,1,3.68.39,13.51,13.51,0,0,1,1.55.5l-.37,1a12.15,12.15,0,0,1,5.7,4.53l.86-.58a13.21,13.21,0,0,1,2,10.21l-1-.21c0,.15-.07.3-.11.45a12.35,12.35,0,0,1-.65,1.9,12.12,12.12,0,0,1-5.16,5.74l.51.89a13.18,13.18,0,0,1-5,1.66l-.12-1A12.15,12.15,0,0,1,217,49l-2.46,1.86a14.42,14.42,0,0,0,1.6.51,14.73,14.73,0,0,0,9.48-27.79Z"/><path class="cls-4" d="M2.47,22.38H7.66c4.07,0,4.83,2.72,4.83,7.34,0,2.28.35,7.51-5,7.51H2.47ZM5.58,34.95h1.5c1.89,0,2.26-1.42,2.26-5.14,0-2.74,0-5.14-2.16-5.14H5.58Z"/><path class="cls-4" d="M15,37.23V22.38h8.1v2.28h-5v3.66h4.61v2.28H18.08v4.34h5.16v2.28Z"/><path class="cls-4" d="M25.19,37.23V22.38H32.9v2.28H28.3v3.81h4.4v2.28H28.3v6.48Z"/><path class="cls-4" d="M34.38,37.23V22.38h8.1v2.28h-5v3.66H42.1v2.28H37.49v4.34h5.16v2.28Z"/><path class="cls-4" d="M44.68,37.23V22.38h4.2l3.95,10.29h0V22.38h2.9V37.23H51.68L47.62,26.37h0V37.23Z"/><path class="cls-4" d="M62.41,37.48c-3.85,0-4.57-2.26-4.4-4.84h3.11c0,1.42.06,2.61,1.77,2.61a1.48,1.48,0,0,0,1.56-1.69c0-2.67-6.25-2.84-6.25-7.26,0-2.32,1.11-4.18,4.9-4.18,3,0,4.53,1.36,4.32,4.46h-3c0-1.11-.18-2.24-1.44-2.24a1.45,1.45,0,0,0-1.61,1.58c0,2.82,6.25,2.57,6.25,7.24C67.59,37,64.77,37.48,62.41,37.48Z"/><path class="cls-4" d="M69.81,37.23V22.38h8.1v2.28h-5v3.66h4.61v2.28H72.91v4.34h5.16v2.28Z"/><path class="cls-5" d="M93.65,22.38v2.47H90.19V37.23H87.08V24.85H83.63V22.38Z"/><path class="cls-5" d="M95.08,37.23V22.38h8.1v2.28h-5v3.66h4.61v2.28H98.19v4.34h5.16v2.28Z"/><path class="cls-5" d="M105.22,29.8c0-3.93,0-7.67,5.12-7.67,3.17,0,4.44,1.75,4.32,4.94h-3c0-2-.35-2.72-1.28-2.72-1.75,0-2,1.65-2,5.45s.23,5.45,2,5.45c1.44,0,1.38-1.85,1.42-3h3.07c0,4-1.58,5.25-4.48,5.25C105.22,37.48,105.22,33.69,105.22,29.8Z"/><path class="cls-5" d="M123.56,28.32V22.38h3.11V37.23h-3.11V30.61H120v6.62H116.9V22.38H120v5.94Z"/><path class="cls-5" d="M129.21,29.8c0-3.93,0-7.67,5.12-7.67,3.17,0,4.44,1.75,4.32,4.94h-3c0-2-.35-2.72-1.28-2.72-1.75,0-2,1.65-2,5.45s.23,5.45,2,5.45c1.44,0,1.38-1.85,1.42-3h3.07c0,4-1.58,5.25-4.48,5.25C129.21,37.48,129.21,33.69,129.21,29.8Z"/><path class="cls-5" d="M140.64,29.8c0-3.93,0-7.67,5.12-7.67s5.12,3.74,5.12,7.67,0,7.67-5.12,7.67S140.64,33.69,140.64,29.8Zm7.1,0c0-3.81-.23-5.45-2-5.45s-2,1.65-2,5.45.23,5.45,2,5.45S147.74,33.61,147.74,29.8Z"/><path class="cls-5" d="M153.37,37.23V22.38h4.2l3.95,10.29h0V22.38h2.9V37.23h-4.09l-4.05-10.86h0V37.23Z"/><path class="cls-5" d="M167.08,37.23V22.38h4.2l3.95,10.29h0V22.38h2.9V37.23h-4.09L170,26.37h0V37.23Z"/><path class="cls-5" d="M180.78,37.23V22.38h8.1v2.28h-5v3.66h4.61v2.28h-4.61v4.34H189v2.28Z"/><path class="cls-5" d="M190.91,29.8c0-3.93,0-7.67,5.12-7.67,3.17,0,4.44,1.75,4.32,4.94h-3c0-2-.35-2.72-1.28-2.72-1.75,0-2,1.65-2,5.45s.23,5.45,2,5.45c1.44,0,1.38-1.85,1.42-3h3.07c0,4-1.58,5.25-4.48,5.25C190.91,37.48,190.91,33.69,190.91,29.8Z"/><path class="cls-5" d="M211.33,22.38v2.47h-3.46V37.23h-3.11V24.85h-3.46V22.38Z"/><path class="cls-5" d="M3.17,63.54c0-2.37,0-4.63,3.09-4.63s3.09,2.26,3.09,4.63,0,4.63-3.09,4.63S3.17,65.88,3.17,63.54Zm4.28,0c0-2.29-.14-3.29-1.19-3.29s-1.19,1-1.19,3.29.14,3.29,1.19,3.29S7.45,65.83,7.45,63.54Z"/><path class="cls-5" d="M10.74,63.54c0-2.37,0-4.63,3.09-4.63,1.91,0,2.68,1.05,2.6,3H14.6c0-1.19-.21-1.64-.77-1.64-1.05,0-1.19,1-1.19,3.29s.14,3.29,1.19,3.29c.87,0,.83-1.12.86-1.82h1.85c0,2.39-1,3.16-2.7,3.16C10.74,68.17,10.74,65.88,10.74,63.54Z"/><path class="cls-5" d="M23.06,59.06v1.49H21V68H19.1V60.55H17V59.06Z"/><path class="cls-5" d="M23.83,63.54c0-2.37,0-4.63,3.09-4.63S30,61.17,30,63.54s0,4.63-3.09,4.63S23.83,65.88,23.83,63.54Zm4.28,0c0-2.29-.14-3.29-1.19-3.29s-1.19,1-1.19,3.29.14,3.29,1.19,3.29S28.11,65.83,28.11,63.54Z"/><path class="cls-5" d="M31.52,68v-9h3.32c1.43,0,2.61.41,2.61,2.32a1.82,1.82,0,0,1-1.53,2v0c1.33.19,1.67,1,1.67,2.27,0,2.27-2,2.37-2.77,2.37Zm1.87-5.3h1.25a1,1,0,0,0,1-1.14,1.07,1.07,0,0,0-1.08-1.14H33.4Zm0,3.92h1a1.11,1.11,0,0,0,1.29-1.27c0-.79-.3-1.28-1.24-1.28H33.4Z"/><path class="cls-5" d="M39.07,68v-9H44v1.38h-3v2.21h2.78V64H40.95v2.62h3.11V68Z"/><path class="cls-5" d="M47.11,68H45.23v-9H48.7c1.28,0,2.1.82,2.1,2.34a1.93,1.93,0,0,1-1.66,2.2v0a1.59,1.59,0,0,1,1.63,1.76A12.27,12.27,0,0,0,51,68H49.13a4.11,4.11,0,0,1-.2-1.74c0-1.07.1-2-1.34-2h-.48Zm0-5.09h.83c.74,0,1-.74,1-1.31,0-.86-.36-1.18-1-1.18h-.83Z"/><path class="cls-5" d="M54.29,68V66.49c2.73-3.63,3.3-4.06,3.3-5.14,0-.43-.16-.84-.66-.84-.72,0-.76.68-.76,1.24H54.42a2.13,2.13,0,0,1,2.38-2.51c1.5,0,2.53.61,2.53,2.23,0,1.95-2.27,4.16-3.21,5.2h3.3V68Z"/><path class="cls-5" d="M59.89,61.52a2.27,2.27,0,0,1,.6-1.81,2.9,2.9,0,0,1,1.89-.46c1.61,0,2.37.66,2.37,2.31,0,.82-.24,1.79-1.18,1.92v0c1.13.21,1.31,1.1,1.31,2.11,0,1.79-1,2.52-2.7,2.52s-2.38-.61-2.38-2.46h1.75c0,.57,0,1.19.73,1.19s.86-.73.86-1.34c0-1.25-.41-1.33-1.62-1.33V62.82c1.14,0,1.49-.07,1.49-1.28,0-.47-.07-1-.67-1s-.68.51-.68,1Z"/><path class="cls-5" d="M68.73,64V65.3h-3V64Z"/><path class="cls-5" d="M69.42,68V66.49c2.73-3.63,3.3-4.06,3.3-5.14,0-.43-.16-.84-.66-.84-.72,0-.76.68-.76,1.24H69.56a2.13,2.13,0,0,1,2.38-2.51c1.5,0,2.53.61,2.53,2.23,0,1.95-2.27,4.16-3.21,5.2h3.3V68Z"/><path class="cls-5" d="M77,62.86l0,0a1.44,1.44,0,0,1,1.25-.58c1.43,0,1.85,1,1.85,2.85,0,2.32-.87,3-2.64,3-1.44,0-2.34-.6-2.29-2.15h1.75a1.21,1.21,0,0,0,.12.62.57.57,0,0,0,.53.26c.69,0,.78-.53.78-1.71,0-.56,0-1.74-.74-1.74-.51,0-.66.57-.66,1H75.24v-5h4.53V60.7H77Z"/><path class="cls-5" d="M81.1,66.38h1.63l-.94,2.84H80.6Z"/><path class="cls-5" d="M85.94,68V66.49c2.73-3.63,3.3-4.06,3.3-5.14,0-.43-.16-.84-.66-.84-.72,0-.76.68-.76,1.24H86.07a2.13,2.13,0,0,1,2.38-2.51c1.5,0,2.53.61,2.53,2.23,0,1.95-2.27,4.16-3.21,5.2h3.3V68Z"/><path class="cls-5" d="M96.55,63.66c0,2.72-.17,4.47-2.51,4.47s-2.51-1.75-2.51-4.47c0-3.31.37-4.42,2.51-4.42S96.55,60.35,96.55,63.66Zm-3.26,0c0,2.62.06,3.18.76,3.18s.76-.56.76-3.18,0-3.18-.76-3.18S93.29,61,93.29,63.69Z"/><path class="cls-5" d="M97.41,60.7a5.29,5.29,0,0,0,1.67-1.34h1.66V68H98.87V61.35a8.8,8.8,0,0,1-1.46,1Z"/><path class="cls-5" d="M102.55,65.8c0-1.07.16-1.95,1.28-2.34v0c-1-.25-1.2-1-1.2-1.89,0-1.58.83-2.29,2.43-2.29s2.43.72,2.43,2.29c0,.92-.22,1.64-1.2,1.89v0c1.12.4,1.28,1.28,1.28,2.34,0,1.63-.87,2.33-2.51,2.33S102.55,67.42,102.55,65.8Zm1.75-.11c0,.5.09,1.18.76,1.18s.76-.68.76-1.18,0-1.54-.76-1.54S104.3,65.16,104.3,65.68Zm.07-4c0,.45.06,1.17.68,1.17s.68-.72.68-1.17-.07-1.13-.68-1.13S104.38,61.22,104.38,61.64Z"/><path class="cls-6" d="M112.83,65.17a1.62,1.62,0,1,1,1.62-1.62A1.61,1.61,0,0,1,112.83,65.17Z"/><path class="cls-5" d="M124,59.06v1.49h-2.08V68H120V60.55h-2.08V59.06Z"/><path class="cls-5" d="M123.41,68l2.48-9h2.47l2.43,9h-2l-.5-2h-2.56l-.51,2ZM127,60.78h0l-.86,3.87h1.79Z"/><path class="cls-5" d="M131.63,68v-9h3l1.4,6.09h0l1.49-6.09h2.92v9h-1.82V61.11h0L136.9,68h-1.79l-1.64-6.91h0V68Z"/><path class="cls-5" d="M142,59.06h3.37c1.71,0,2.38,1,2.38,2.68a2.31,2.31,0,0,1-2.49,2.63h-1.39V68H142ZM143.88,63h1c.56,0,.94-.61.94-1.2s-.2-1.35-1-1.35h-.94Z"/><path class="cls-5" d="M147.58,68l2.48-9h2.47L155,68h-2l-.5-2h-2.56l-.51,2Zm3.61-7.23h0l-.86,3.87h1.79Z"/><path class="cls-5" d="M155.88,66.38h1.63l-.94,2.84h-1.19Z"/><path class="cls-5" d="M161.31,68v-9H166v1.38h-2.78v2.29h2.65v1.38h-2.65V68Z"/><path class="cls-5" d="M166.86,68v-9h1.87v7.47h2.8V68Z"/><path class="cls-6" d="M3.43,52.3V43.5H8.65v1h-4v2.77H8.42v1H4.65V52.3Z"/><path class="cls-6" d="M8.51,52.3l3.71-8.8h1.3l3.56,8.8H15.75L14.8,50H10.71l-1,2.29ZM11.13,49h3.28l-1.6-4.26Z"/><path class="cls-6" d="M18.33,52.3V43.5h1.22v7.75h4.1v1Z"/><path class="cls-6" d="M25.11,52.3V43.5h1.22v7.75h4.1v1Z"/><path class="cls-6" d="M36.1,49.73c0,1.24.74,1.71,1.93,1.71,1,0,2.22-.29,2.22-1.52,0-.85-.71-1.21-1.44-1.35-1.45-.32-3.86-.65-3.86-2.62s1.74-2.62,3.39-2.62,3,.67,3,2.38H40c0-1-.88-1.33-1.76-1.33s-2,.32-2,1.37.71,1.06,1.48,1.3c1.62.52,3.83.52,3.83,2.74,0,2-1.79,2.71-3.57,2.71s-3.18-.78-3.13-2.76Z"/><path class="cls-6" d="M50.56,48.82c0,2.27-1.16,3.67-3.55,3.67s-3.58-1.4-3.55-3.67V43.5h1.22v5.61a2.33,2.33,0,0,0,4.66,0V43.5h1.22Z"/><path class="cls-6" d="M60.91,44.38h0L58.07,52.3H56.93l-2.82-7.92h0V52.3H52.87V43.5h2.18l2.54,7.25h0L60.1,43.5h2v8.8H60.91Z"/><path class="cls-6" d="M72.42,44.38h0L69.58,52.3H68.43l-2.82-7.92h0V52.3H64.37V43.5h2.18l2.54,7.25h0L71.6,43.5h2v8.8H72.42Z"/><path class="cls-6" d="M75.84,52.3V43.5h1.22v8.8Z"/><path class="cls-6" d="M81.26,44.55h-3v-1h7.12v1h-3V52.3H81.26Z"/><path class="cls-6" d="M95.66,51.22a4.24,4.24,0,0,1-3.28,1.27A2.57,2.57,0,0,1,89.65,50c0-1.35.83-2.11,1.85-2.84a2.92,2.92,0,0,1-1-2c0-1.33,1.13-1.88,2.34-1.88s2.38.44,2.38,1.88c0,.83-.87,1.65-1.71,2.18l2.16,2.13a5.24,5.24,0,0,0,.58-2.91h1.28a6.12,6.12,0,0,1-1.11,3.67l2.08,2,0,0H96.73Zm-3.38-3.28c-.73.55-1.35,1-1.35,2s1,1.48,1.89,1.48a3,3,0,0,0,2-1Zm1.65-2.72c0-.6-.57-.85-1.1-.85a1,1,0,0,0-1.06.91c0,.41.55.91,1,1.3C93.22,46.24,93.93,45.69,93.93,45.22Z"/><path class="cls-6" d="M102.76,52.3V43.5h5.52v1H104v2.74h4.1v1H104v2.91h4.4v1Z"/><path class="cls-6" d="M111,52.3h-1.48L113,47.69l-3-4.19h1.56l2.38,3.39,2.38-3.39h1.48l-3.13,4.22,3.29,4.58h-1.54l-2.62-3.78Z"/><path class="cls-6" d="M119.17,43.5h3c1.63-.07,3,.54,3,2.46s-1.5,2.43-3.12,2.46h-1.66V52.3h-1.22Zm3.13,3.88a1.42,1.42,0,1,0,0-2.83h-1.91v2.83Z"/><path class="cls-6" d="M130.28,43.32c2.74,0,4,2,4,4.58s-1.28,4.58-4,4.58-4-2-4-4.58S127.54,43.32,130.28,43.32Zm0,8.12c2.23,0,2.74-1.71,2.74-3.54s-.51-3.54-2.74-3.54-2.74,1.66-2.74,3.54S128.05,51.44,130.28,51.44Z"/></svg>